<svg id="svg8" xmlns="http://www.w3.org/2000/svg" xmlns:xlink="http://www.w3.org/1999/xlink" viewBox="0 0 808.8 220.97"><defs><style>.cls-1{fill:url(#linear-gradient);}.cls-2{fill:none;stroke:#000;stroke-miterlimit:15.12;stroke-width:0.81px;}</style><linearGradient id="linear-gradient" x1="6.08" y1="131.06" x2="228.09" y2="131.06" gradientTransform="matrix(1, 0, 0, -1, 583.42, 250.8)" gradientUnits="userSpaceOnUse"><stop offset="0" stop-color="purple"/><stop offset="0.1" stop-color="purple"/><stop offset="0.18" stop-color="blue"/><stop offset="0.3" stop-color="aqua"/><stop offset="0.42" stop-color="lime"/><stop offset="0.57" stop-color="#ff0"/><stop offset="0.75" stop-color="#f60"/><stop offset="0.92" stop-color="red"/><stop offset="1" stop-color="red"/></linearGradient></defs><path d="M329.59,131.57a13.25,13.25,0,0,1-5.26-5.51,17.53,17.53,0,0,1-1.86-8.24V105.75a17.55,17.55,0,0,1,1.86-8.25A13.31,13.31,0,0,1,329.59,92a16.78,16.78,0,0,1,15.7,0,13.31,13.31,0,0,1,5.26,5.51,17.55,17.55,0,0,1,1.86,8.25v12.07a17.53,17.53,0,0,1-1.86,8.24,13.25,13.25,0,0,1-5.26,5.51,16.78,16.78,0,0,1-15.7,0Zm12.5-5.12a8.09,8.09,0,0,0,3.1-3.37,11.15,11.15,0,0,0,1.1-5.06V105.54a11.11,11.11,0,0,0-1.1-5.05,8,8,0,0,0-3.1-3.37,9.66,9.66,0,0,0-9.29,0,8,8,0,0,0-3.11,3.37,11.11,11.11,0,0,0-1.1,5.05V118a11.15,11.15,0,0,0,1.1,5.06,8.11,8.11,0,0,0,3.11,3.37,9.73,9.73,0,0,0,9.29,0Z" transform="translate(-322.47 -9.26)"/><path d="M366.67,132a10.48,10.48,0,0,1-4.5-4.51,15.19,15.19,0,0,1-1.55-7.15v-5a14.81,14.81,0,0,1,1.55-7.06,10.39,10.39,0,0,1,4.5-4.47,15.1,15.1,0,0,1,7.1-1.54,17,17,0,0,1,4.47.57,13.35,13.35,0,0,1,3.76,1.66,10.31,10.31,0,0,1,2.79,2.63L380.48,111a9,9,0,0,0-3-2.25,8.5,8.5,0,0,0-3.6-.79,7.17,7.17,0,0,0-5.36,1.93,7.43,7.43,0,0,0-1.91,5.45v5a7.68,7.68,0,0,0,1.89,5.56,7.11,7.11,0,0,0,5.38,2,8.2,8.2,0,0,0,3.63-.85,9,9,0,0,0,3-2.4l4.31,4.16a10.76,10.76,0,0,1-2.82,2.59,13.28,13.28,0,0,1-3.76,1.62,16.88,16.88,0,0,1-4.44.56A15.1,15.1,0,0,1,366.67,132Z" transform="translate(-322.47 -9.26)"/><path d="M389,102.67h13.72v5.39H389Zm4.85,28.52c-1.14-1.36-1.71-3.36-1.71-6V93.82h6v31.41a2.88,2.88,0,0,0,.43,1.71,1.52,1.52,0,0,0,1.29.6h2.88v5.69h-3.46Q395.6,133.23,393.88,131.19Z" transform="translate(-322.47 -9.26)"/><path d="M415.84,132a10.28,10.28,0,0,1-4.29-4.53,15.88,15.88,0,0,1-1.48-7.16v-5a15.55,15.55,0,0,1,1.48-7.08,10.21,10.21,0,0,1,4.29-4.48,15.65,15.65,0,0,1,13.54,0,10.27,10.27,0,0,1,4.29,4.48,15.68,15.68,0,0,1,1.48,7.08v5a15.74,15.74,0,0,1-1.48,7.1,10.37,10.37,0,0,1-4.29,4.5,15.56,15.56,0,0,1-13.54,0Zm11.62-6.1a8.09,8.09,0,0,0,1.71-5.5v-5a8,8,0,0,0-1.71-5.48,7.06,7.06,0,0,0-9.7,0,8,8,0,0,0-1.71,5.48v5a8.09,8.09,0,0,0,1.71,5.5,7,7,0,0,0,9.7,0Z" transform="translate(-322.47 -9.26)"/><path d="M443.64,102.67h6v42.77h-6Zm8.68,29.49a7.94,7.94,0,0,1-3.11-3.85l.41-6.36a7.26,7.26,0,0,0,.7,3.34,4.89,4.89,0,0,0,2,2.11,6.63,6.63,0,0,0,3.24.73,5.85,5.85,0,0,0,4.58-1.8,7.3,7.3,0,0,0,1.63-5.08v-6.6a7.55,7.55,0,0,0-1.63-5.18,5.78,5.78,0,0,0-4.58-1.85,6.86,6.86,0,0,0-3.24.71,4.67,4.67,0,0,0-2,2.06,7,7,0,0,0-.7,3.27L449,107.8a10.56,10.56,0,0,1,3.61-4.12,8.83,8.83,0,0,1,4.95-1.45,10.09,10.09,0,0,1,5.52,1.45,9.07,9.07,0,0,1,3.5,4.24,16.86,16.86,0,0,1,1.2,6.7v6.63a16.2,16.2,0,0,1-1.23,6.62,9.18,9.18,0,0,1-3.6,4.2,10.66,10.66,0,0,1-5.68,1.45A8.88,8.88,0,0,1,452.32,132.16Z" transform="translate(-322.47 -9.26)"/><path d="M481.17,132a10.34,10.34,0,0,1-4.29-4.53,15.88,15.88,0,0,1-1.48-7.16v-5a15.55,15.55,0,0,1,1.48-7.08,10.27,10.27,0,0,1,4.29-4.48,15.65,15.65,0,0,1,13.54,0,10.27,10.27,0,0,1,4.29,4.48,15.55,15.55,0,0,1,1.48,7.08v5a15.61,15.61,0,0,1-1.48,7.1,10.37,10.37,0,0,1-4.29,4.5,15.56,15.56,0,0,1-13.54,0Zm11.62-6.1a8.09,8.09,0,0,0,1.71-5.5v-5a8,8,0,0,0-1.71-5.48,7.06,7.06,0,0,0-9.7,0,8,8,0,0,0-1.71,5.48v5a8.09,8.09,0,0,0,1.71,5.5,7,7,0,0,0,9.7,0Z" transform="translate(-322.47 -9.26)"/><path d="M513.87,132a10.23,10.23,0,0,1-4.29-4.53,15.88,15.88,0,0,1-1.48-7.16v-5a15.55,15.55,0,0,1,1.48-7.08,10.16,10.16,0,0,1,4.29-4.48,15.63,15.63,0,0,1,13.53,0,10.23,10.23,0,0,1,4.3,4.48,15.69,15.69,0,0,1,1.47,7.08v5a15.75,15.75,0,0,1-1.47,7.1,10.34,10.34,0,0,1-4.3,4.5,15.54,15.54,0,0,1-13.53,0Zm11.61-6.1a8,8,0,0,0,1.72-5.5v-5a8,8,0,0,0-1.72-5.48,7,7,0,0,0-9.69,0,8,8,0,0,0-1.72,5.48v5a8,8,0,0,0,1.72,5.5,6.94,6.94,0,0,0,9.69,0Z" transform="translate(-322.47 -9.26)"/><path d="M547.65,125.23a2.68,2.68,0,0,0,.48,1.71,1.65,1.65,0,0,0,1.36.6h2.82v5.69h-3.52a6.66,6.66,0,0,1-5.26-2.11,8.71,8.71,0,0,1-1.86-6V90.48h6Z" transform="translate(-322.47 -9.26)"/><g id="layer1"><g id="g4453"><g id="g4509"><g id="g1440"><path id="path1385" class="cls-1" d="M614.05,184.71c9.65-.36,16.29-8.73,17.34-9.54s.93,1.16.35,3.14a24.73,24.73,0,0,1-16.41,16.05c-7.1,1.91-8,6.54-7,10.13s6.79,8.36,14,7.26c10.94-1.65,29.83-10.65,35.39-41.23,2.29-12.58,6.05-16.06,7.68-15.94s3.37,3,2.91,13.49-.47,31.53-10.7,45.25c-2.57,2.8-6.17,11.29.23,15.24s13.26.82,20.24-9.06,14.64-60,22.35-60h0c7.71.07,15.38,50.15,22.35,60s13.85,13,20.25,9.06,2.79-12.44.23-15.24c-10.23-13.72-10.23-34.78-10.7-45.25s1.28-13.38,2.91-13.49,5.38,3.36,7.67,15.94c5.57,30.58,24.46,39.58,35.4,41.23,7.25,1.1,13-3.54,14-7.26s.12-8.22-7-10.13a24.71,24.71,0,0,1-16.4-16.05c-.58-2-.7-4,.34-3.14s7.7,9.18,17.35,9.54c21.36.8,24.66-17.67,24.54-28.26s-8-17.7-13.26-21.16c-4.65-3.1-7-2.15-8.36.15-.58,1-1.17,4.69.68,6.24,2.13,1.77,7.8,6,7.68,12.1s-4.53,12.1-11.57,12.11c-13.38,0-28.16-28.89-27.08-31.08,4.7-7.91,19.65-11.71,19.16-15.42-2.48-12.62-30.23-1.46-33.94-2-1.52-.2-1.73-2.72-1.73-2.72-.49-17.57,13.15-23,13.15-54.24,0-10.89-10.39-51.22-55.73-51.22h0c-45.33,0-55.72,40.33-55.72,51.22,0,31.19,13.65,36.67,13.15,54.24,0,0-.21,2.52-1.73,2.72-3.72.49-31.46-10.67-33.94,2-.5,3.71,14.46,7.51,19.16,15.42,1.08,2.19-13.71,31.08-27.08,31.08-7,0-11.45-6.07-11.57-12.11s5.55-10.33,7.67-12.1c1.86-1.55,1.27-5.27.69-6.24-1.38-2.3-3.71-3.25-8.36-.15-5.22,3.46-13.15,10.57-13.27,21.16s3.18,29.06,24.55,28.26Z" transform="translate(-322.47 -9.26)"/></g><ellipse id="path4412" cx="348.58" cy="69.3" rx="5.67" ry="13.35"/><ellipse id="path4412-4" cx="392.44" cy="69.39" rx="5.67" ry="13.35"/><path id="path4431" class="cls-2" d="M674.85,109.07c22.35,20.18,32.92,11.14,46.09-7.68" transform="translate(-322.47 -9.26)"/></g></g></g><path d="M833.17,92.38h2l6.28,17h-2.58l-4.72-13.74-4.73,13.74h-2.57Zm-3.39,11h9v2.28h-9Z" transform="translate(-322.47 -9.26)"/><path d="M849.34,97.26h6.08v2h-6.08Zm1.29-1.65a3.47,3.47,0,0,1,.74-2.42,3,3,0,0,1,2.29-.81h1.76v2.28h-1.71a.55.55,0,0,0-.51.26,1.12,1.12,0,0,0-.18.66v13.84h-2.39Z" transform="translate(-322.47 -9.26)"/><path d="M857.94,108.67a3.49,3.49,0,0,1-1.11-2.83,3.42,3.42,0,0,1,1-2.71,4.53,4.53,0,0,1,3.08-.9h3.46l.16,1.92h-3.61a2,2,0,0,0-1.4.42,1.61,1.61,0,0,0-.46,1.27,1.57,1.57,0,0,0,.61,1.37,3.19,3.19,0,0,0,1.87.44,5.33,5.33,0,0,0,2.05-.29,1,1,0,0,0,.67-.91l.25,1.71a2.74,2.74,0,0,1-.78.81,3.35,3.35,0,0,1-1.07.47,5.34,5.34,0,0,1-1.38.16A5.14,5.14,0,0,1,857.94,108.67Zm6.34-7a2.54,2.54,0,0,0-.64-1.85,2.36,2.36,0,0,0-1.81-.67,4.59,4.59,0,0,0-1.42.23,3.9,3.9,0,0,0-1.24.62l-1.74-1.2a4.56,4.56,0,0,1,1.82-1.29,6.53,6.53,0,0,1,2.51-.47,5.73,5.73,0,0,1,2.59.54A3.66,3.66,0,0,1,866,99.16a4.93,4.93,0,0,1,.56,2.45v7.81h-2.27Z" transform="translate(-322.47 -9.26)"/><path d="M872.47,109.39a6.91,6.91,0,0,1-3.28-1.69l1.42-1.74a8,8,0,0,0,2,1.12,5.29,5.29,0,0,0,1.92.38,4.18,4.18,0,0,0,2.13-.44,1.46,1.46,0,0,0,.7-1.32,1,1,0,0,0-.38-.88,2.08,2.08,0,0,0-1-.39c-.39-.07-.93-.13-1.62-.19h-.2l-.2,0h-.19a9.15,9.15,0,0,1-2-.35,2.7,2.7,0,0,1-1.37-.94,3.15,3.15,0,0,1-.54-2,4,4,0,0,1,.53-2.14A3.16,3.16,0,0,1,872,97.51a7,7,0,0,1,2.61-.43,8.82,8.82,0,0,1,1.81.18,8.34,8.34,0,0,1,1.65.52,8.53,8.53,0,0,1,1.51.87l-1.44,1.75a8.28,8.28,0,0,0-1.8-.88,5.65,5.65,0,0,0-1.73-.29,3.35,3.35,0,0,0-1.83.41,1.44,1.44,0,0,0-.61,1.25.85.85,0,0,0,.35.74,2,2,0,0,0,.87.33c.35.05.85.1,1.5.14h.45a10.87,10.87,0,0,1,2.17.34,3,3,0,0,1,1.51,1,3.52,3.52,0,0,1,.61,2.21,3.85,3.85,0,0,1-.57,2.17,3.36,3.36,0,0,1-1.69,1.3,8,8,0,0,1-2.84.43A9.28,9.28,0,0,1,872.47,109.39Z" transform="translate(-322.47 -9.26)"/><path d="M881.7,97.26h5.48v2.16H881.7Zm1.93,11.41a3.7,3.7,0,0,1-.68-2.41V93.72h2.39v12.56a1.13,1.13,0,0,0,.18.69.58.58,0,0,0,.51.24h1.15v2.27H885.8A2.69,2.69,0,0,1,883.63,108.67Z" transform="translate(-322.47 -9.26)"/><path d="M890.05,106.92h2.51v3.79l-2.51,2.6Z" transform="translate(-322.47 -9.26)"/><path d="M902.34,97.26h2.39v12.16h-2.39Zm5.9,2.3a2.77,2.77,0,0,0-1.12-.2,2.42,2.42,0,0,0-1.76.62,2.35,2.35,0,0,0-.63,1.74l-.24-2.34a4.39,4.39,0,0,1,1.45-1.69,3.47,3.47,0,0,1,2-.61,4.51,4.51,0,0,1,1.51.24,3.31,3.31,0,0,1,1.17.71L909,100.14A2,2,0,0,0,908.24,99.56Z" transform="translate(-322.47 -9.26)"/><path d="M914.45,109a4.15,4.15,0,0,1-1.82-1.86,6.41,6.41,0,0,1-.63-3v-1.37a7.2,7.2,0,0,1,.6-3.08,4.4,4.4,0,0,1,1.76-2,5.42,5.42,0,0,1,2.76-.67,4.37,4.37,0,0,1,2.6.77,4.69,4.69,0,0,1,1.65,2.2,9.39,9.39,0,0,1,.57,3.46v.79h-8.21v-1.92h5.93a4.09,4.09,0,0,0-.76-2.31,2.17,2.17,0,0,0-1.78-.83,2.58,2.58,0,0,0-2.1.89,3.79,3.79,0,0,0-.75,2.52v1.55a3.17,3.17,0,0,0,.8,2.32,3,3,0,0,0,2.26.81,3.65,3.65,0,0,0,1.44-.3,4,4,0,0,0,1.28-.82l1.57,1.57a6.67,6.67,0,0,1-2,1.35,5.87,5.87,0,0,1-2.26.47A6.12,6.12,0,0,1,914.45,109Z" transform="translate(-322.47 -9.26)"/><path d="M927.5,109.39a6.91,6.91,0,0,1-3.28-1.69l1.42-1.74a8,8,0,0,0,2,1.12,5.33,5.33,0,0,0,1.92.38,4.18,4.18,0,0,0,2.13-.44,1.47,1.47,0,0,0,.71-1.32,1,1,0,0,0-.39-.88,2.08,2.08,0,0,0-1-.39c-.39-.07-.92-.13-1.62-.19h-.2l-.2,0h-.19a9.26,9.26,0,0,1-2-.35,2.63,2.63,0,0,1-1.36-.94,3.09,3.09,0,0,1-.55-2,4,4,0,0,1,.53-2.14A3.16,3.16,0,0,1,927,97.51a7,7,0,0,1,2.61-.43,8.82,8.82,0,0,1,1.81.18,8,8,0,0,1,3.16,1.39l-1.44,1.75a8.28,8.28,0,0,0-1.8-.88,5.65,5.65,0,0,0-1.73-.29,3.35,3.35,0,0,0-1.83.41,1.44,1.44,0,0,0-.61,1.25.85.85,0,0,0,.35.74,2,2,0,0,0,.87.33c.35.05.85.1,1.5.14h.45a10.87,10.87,0,0,1,2.17.34,3,3,0,0,1,1.51,1,3.52,3.52,0,0,1,.61,2.21,3.85,3.85,0,0,1-.57,2.17,3.32,3.32,0,0,1-1.69,1.3,8,8,0,0,1-2.84.43A9.28,9.28,0,0,1,927.5,109.39Z" transform="translate(-322.47 -9.26)"/><path d="M937.66,92.38h2.39v2.4h-2.39Zm0,4.88h2.39v12.16h-2.39Z" transform="translate(-322.47 -9.26)"/><path d="M946.08,106.28a1.07,1.07,0,0,0,.19.69.66.66,0,0,0,.55.24h1.12v2.27h-1.4a2.68,2.68,0,0,1-2.11-.84,3.51,3.51,0,0,1-.74-2.38V92.38h2.39Z" transform="translate(-322.47 -9.26)"/><path d="M950.64,92.38H953v2.4h-2.39Zm0,4.88H953v12.16h-2.39Z" transform="translate(-322.47 -9.26)"/><path d="M958.76,109a4.15,4.15,0,0,1-1.82-1.86,6.41,6.41,0,0,1-.63-3v-1.37a7.2,7.2,0,0,1,.6-3.08,4.38,4.38,0,0,1,1.75-2,5.49,5.49,0,0,1,2.77-.67,4.37,4.37,0,0,1,2.6.77,4.69,4.69,0,0,1,1.65,2.2,9.39,9.39,0,0,1,.57,3.46v.79H958v-1.92H964a4.09,4.09,0,0,0-.76-2.31,2.19,2.19,0,0,0-1.78-.83,2.58,2.58,0,0,0-2.1.89,3.79,3.79,0,0,0-.75,2.52v1.55a3.17,3.17,0,0,0,.8,2.32,3,3,0,0,0,2.26.81,3.68,3.68,0,0,0,1.44-.3,4.12,4.12,0,0,0,1.28-.82l1.57,1.57a6.67,6.67,0,0,1-2,1.35,5.87,5.87,0,0,1-2.26.47A6.1,6.1,0,0,1,958.76,109Z" transform="translate(-322.47 -9.26)"/><path d="M969.53,97.26h2.39v12.16h-2.39Zm7.38,4.79a2.75,2.75,0,0,0-.67-2,2.9,2.9,0,0,0-3.68-.08,2.29,2.29,0,0,0-.64,1.74l-.25-2.34a4.47,4.47,0,0,1,1.47-1.7,3.59,3.59,0,0,1,2-.6,3.81,3.81,0,0,1,3.07,1.3A5.55,5.55,0,0,1,979.3,102v7.38h-2.39Z" transform="translate(-322.47 -9.26)"/><path d="M982,97.26h5.48v2.16H982Zm1.94,11.41a3.65,3.65,0,0,1-.69-2.41V93.72h2.39v12.56a1.13,1.13,0,0,0,.18.69.59.59,0,0,0,.51.24h1.15v2.27H986.1A2.66,2.66,0,0,1,983.94,108.67Z" transform="translate(-322.47 -9.26)"/><path d="M990.35,106.92h2.51v3.79l-2.51,2.6Z" transform="translate(-322.47 -9.26)"/><path d="M1004.74,109a4.25,4.25,0,0,1-1.82-1.86,6.41,6.41,0,0,1-.63-3v-1.37a7.05,7.05,0,0,1,.61-3.08,4.32,4.32,0,0,1,1.75-2,5.45,5.45,0,0,1,2.76-.67,4.4,4.4,0,0,1,2.61.77,4.74,4.74,0,0,1,1.64,2.2,9.39,9.39,0,0,1,.57,3.46v.79H1004v-1.92H1010a4.09,4.09,0,0,0-.77-2.31,2.16,2.16,0,0,0-1.78-.83,2.61,2.61,0,0,0-2.1.89,3.79,3.79,0,0,0-.74,2.52v1.55a3.17,3.17,0,0,0,.79,2.32,3,3,0,0,0,2.26.81,3.73,3.73,0,0,0,1.45-.3,4.07,4.07,0,0,0,1.27-.82l1.57,1.57a6.63,6.63,0,0,1-2,1.35,5.92,5.92,0,0,1-2.27.47A6.12,6.12,0,0,1,1004.74,109Z" transform="translate(-322.47 -9.26)"/><path d="M1016,108.67a3.49,3.49,0,0,1-1.11-2.83,3.42,3.42,0,0,1,1-2.71,4.51,4.51,0,0,1,3.08-.9h3.45l.17,1.92H1019a2,2,0,0,0-1.4.42,1.61,1.61,0,0,0-.46,1.27,1.57,1.57,0,0,0,.61,1.37,3.17,3.17,0,0,0,1.87.44,5.37,5.37,0,0,0,2.05-.29,1,1,0,0,0,.67-.91l.24,1.71a2.84,2.84,0,0,1-.77.81,3.31,3.31,0,0,1-1.08.47,5.21,5.21,0,0,1-1.37.16A5.14,5.14,0,0,1,1016,108.67Zm6.34-7a2.54,2.54,0,0,0-.64-1.85,2.38,2.38,0,0,0-1.81-.67,4.59,4.59,0,0,0-1.42.23,3.9,3.9,0,0,0-1.24.62l-1.75-1.2a4.59,4.59,0,0,1,1.83-1.29,6.53,6.53,0,0,1,2.51-.47,5.73,5.73,0,0,1,2.59.54,3.71,3.71,0,0,1,1.64,1.54,5,5,0,0,1,.56,2.45v7.81h-2.27Z" transform="translate(-322.47 -9.26)"/><path d="M1030.56,109.39a7.52,7.52,0,0,1-1.76-.63,7.21,7.21,0,0,1-1.51-1.06l1.42-1.74a8,8,0,0,0,2,1.12,5.34,5.34,0,0,0,1.93.38,4.11,4.11,0,0,0,2.12-.44,1.45,1.45,0,0,0,.71-1.32,1,1,0,0,0-.38-.88,2.07,2.07,0,0,0-1-.39c-.38-.07-.92-.13-1.61-.19h-.2l-.2,0h-.19a9,9,0,0,1-2-.35,2.7,2.7,0,0,1-1.37-.94,3.15,3.15,0,0,1-.54-2,4,4,0,0,1,.52-2.14,3.25,3.25,0,0,1,1.57-1.29,7.07,7.07,0,0,1,2.62-.43,8.89,8.89,0,0,1,1.81.18,8.17,8.17,0,0,1,3.16,1.39l-1.44,1.75a8.28,8.28,0,0,0-1.8-.88,5.65,5.65,0,0,0-1.73-.29,3.35,3.35,0,0,0-1.83.41,1.41,1.41,0,0,0-.61,1.25.85.85,0,0,0,.35.74,2,2,0,0,0,.87.33c.35.05.85.1,1.5.14h.44a10.86,10.86,0,0,1,2.18.34,3,3,0,0,1,1.5,1,3.46,3.46,0,0,1,.61,2.21,3.85,3.85,0,0,1-.56,2.17,3.36,3.36,0,0,1-1.69,1.3,8,8,0,0,1-2.84.43A9.37,9.37,0,0,1,1030.56,109.39Z" transform="translate(-322.47 -9.26)"/><path d="M1039.09,97.26h2.44l3.74,10.57-1.33,2.59Zm10.77,0-5.18,15a3.46,3.46,0,0,1-.74,1.32,2.61,2.61,0,0,1-1.12.7,5.59,5.59,0,0,1-1.64.21h-.48v-2.3h.48a1.87,1.87,0,0,0,1.06-.27,2.15,2.15,0,0,0,.68-.92l4.5-13.75Z" transform="translate(-322.47 -9.26)"/><path d="M1059.84,102.18v2.28H1052v-2.28Z" transform="translate(-322.47 -9.26)"/><path d="M1062.54,97.26H1068v2.16h-5.48Zm1.94,11.41a3.65,3.65,0,0,1-.69-2.41V93.72h2.39v12.56a1.13,1.13,0,0,0,.18.69.61.61,0,0,0,.52.24H1068v2.27h-1.38A2.68,2.68,0,0,1,1064.48,108.67Z" transform="translate(-322.47 -9.26)"/><path d="M1073.26,109a4.18,4.18,0,0,1-1.72-1.81,6.44,6.44,0,0,1-.59-2.87v-2a6.32,6.32,0,0,1,.59-2.83,4.13,4.13,0,0,1,1.72-1.79,6.23,6.23,0,0,1,5.42,0,4.06,4.06,0,0,1,1.71,1.79,6.19,6.19,0,0,1,.59,2.83v2a6.2,6.2,0,0,1-.59,2.84,4.13,4.13,0,0,1-1.71,1.8,6.23,6.23,0,0,1-5.42,0Zm4.65-2.44a3.22,3.22,0,0,0,.68-2.2v-2a3.19,3.19,0,0,0-.68-2.19,2.83,2.83,0,0,0-3.88,0,3.2,3.2,0,0,0-.69,2.19v2a3.22,3.22,0,0,0,.69,2.2,2.78,2.78,0,0,0,3.88,0Z" transform="translate(-322.47 -9.26)"/><path d="M1092.26,102.18v2.28h-7.88v-2.28Z" transform="translate(-322.47 -9.26)"/><path d="M1098.28,104.65a2.81,2.81,0,0,0,.65,2,2.43,2.43,0,0,0,1.84.7,2.51,2.51,0,0,0,1.81-.62,2.36,2.36,0,0,0,.65-1.77l.16,2.54a3.55,3.55,0,0,1-1.22,1.51,3.41,3.41,0,0,1-2.07.61,3.82,3.82,0,0,1-3.11-1.3,5.49,5.49,0,0,1-1.1-3.65V97.26h2.39Zm5-7.39h2.38v12.16h-2.38Z" transform="translate(-322.47 -9.26)"/><path d="M1111.52,109.39a6.91,6.91,0,0,1-3.28-1.69l1.42-1.74a8,8,0,0,0,2,1.12,5.33,5.33,0,0,0,1.92.38,4.18,4.18,0,0,0,2.13-.44,1.47,1.47,0,0,0,.71-1.32,1,1,0,0,0-.39-.88,2.08,2.08,0,0,0-1-.39c-.39-.07-.92-.13-1.62-.19h-.2l-.2,0h-.19a9.26,9.26,0,0,1-2-.35,2.63,2.63,0,0,1-1.36-.94,3.09,3.09,0,0,1-.55-2,4,4,0,0,1,.53-2.14,3.16,3.16,0,0,1,1.57-1.29,7,7,0,0,1,2.61-.43,8.82,8.82,0,0,1,1.81.18,8.34,8.34,0,0,1,1.65.52,8.19,8.19,0,0,1,1.51.87l-1.44,1.75a8.28,8.28,0,0,0-1.8-.88,5.65,5.65,0,0,0-1.73-.29,3.35,3.35,0,0,0-1.83.41,1.44,1.44,0,0,0-.61,1.25.85.85,0,0,0,.35.74,2,2,0,0,0,.87.33c.35.05.85.1,1.5.14h.45a10.87,10.87,0,0,1,2.17.34,3,3,0,0,1,1.51,1,3.52,3.52,0,0,1,.61,2.21,3.85,3.85,0,0,1-.57,2.17,3.36,3.36,0,0,1-1.69,1.3,8,8,0,0,1-2.84.43A9.28,9.28,0,0,1,1111.52,109.39Z" transform="translate(-322.47 -9.26)"/><path d="M1123.78,109a4.2,4.2,0,0,1-1.82-1.86,6.41,6.41,0,0,1-.63-3v-1.37a7.05,7.05,0,0,1,.61-3.08,4.32,4.32,0,0,1,1.75-2,5.45,5.45,0,0,1,2.76-.67,4.35,4.35,0,0,1,2.6.77,4.69,4.69,0,0,1,1.65,2.2,9.39,9.39,0,0,1,.57,3.46v.79h-8.2v-1.92H1129a4.09,4.09,0,0,0-.77-2.31,2.16,2.16,0,0,0-1.78-.83,2.61,2.61,0,0,0-2.1.89,3.79,3.79,0,0,0-.74,2.52v1.55a3.17,3.17,0,0,0,.79,2.32,3,3,0,0,0,2.26.81,3.73,3.73,0,0,0,1.45-.3,4.07,4.07,0,0,0,1.27-.82l1.57,1.57a6.63,6.63,0,0,1-2,1.35,5.92,5.92,0,0,1-2.27.47A6.12,6.12,0,0,1,1123.78,109Z" transform="translate(-322.47 -9.26)"/><path d="M827.24,126.06h2.49l2.16,8.68,3-8.68h1.66l3,8.68,2.16-8.68h2.5l-3.75,12.16h-1.81l-3-8.4-3,8.4H831Z" transform="translate(-322.47 -9.26)"/><path d="M848.58,137.78a4.18,4.18,0,0,1-1.72-1.81,6.47,6.47,0,0,1-.59-2.87v-2a6.32,6.32,0,0,1,.59-2.83,4.13,4.13,0,0,1,1.72-1.79,6.21,6.21,0,0,1,5.41,0,4.13,4.13,0,0,1,1.72,1.79,6.32,6.32,0,0,1,.59,2.83v2a6.34,6.34,0,0,1-.59,2.84,4.21,4.21,0,0,1-1.72,1.8,6.21,6.21,0,0,1-5.41,0Zm4.64-2.44a3.22,3.22,0,0,0,.69-2.2v-2a3.2,3.2,0,0,0-.69-2.19,2.82,2.82,0,0,0-3.87,0,3.2,3.2,0,0,0-.69,2.19v2a3.22,3.22,0,0,0,.69,2.2,2.76,2.76,0,0,0,3.87,0Z" transform="translate(-322.47 -9.26)"/><path d="M859.7,126.06h2.39v12.16H859.7Zm5.89,2.3a2.75,2.75,0,0,0-1.11-.2,2.39,2.39,0,0,0-1.76.62,2.35,2.35,0,0,0-.63,1.74l-.25-2.34a4.42,4.42,0,0,1,1.46-1.69,3.45,3.45,0,0,1,2-.61,4.45,4.45,0,0,1,1.5.24,3.45,3.45,0,0,1,1.18.71l-1.56,2.11A2,2,0,0,0,865.59,128.36Z" transform="translate(-322.47 -9.26)"/><path d="M869.94,121.18h2.39v17h-2.39Zm1,12.43,6.26-7.55H880l-9.22,10.38Zm2.83-2.41,1.53-1.59,5.31,8.61H878Z" transform="translate(-322.47 -9.26)"/><path d="M884.73,137.77a4.25,4.25,0,0,1-1.82-1.86,6.41,6.41,0,0,1-.63-3v-1.37a7.2,7.2,0,0,1,.6-3.08,4.4,4.4,0,0,1,1.76-2,5.42,5.42,0,0,1,2.76-.67,4.35,4.35,0,0,1,2.6.77,4.69,4.69,0,0,1,1.65,2.2,9.39,9.39,0,0,1,.57,3.46v.79H884v-1.92H890a4.09,4.09,0,0,0-.77-2.31,2.17,2.17,0,0,0-1.78-.83,2.59,2.59,0,0,0-2.1.89,3.79,3.79,0,0,0-.75,2.52V133a3.19,3.19,0,0,0,.8,2.32,3,3,0,0,0,2.26.81,3.65,3.65,0,0,0,1.44-.3,4,4,0,0,0,1.28-.82l1.57,1.57a6.53,6.53,0,0,1-2,1.34,5.79,5.79,0,0,1-2.27.48A6.12,6.12,0,0,1,884.73,137.77Z" transform="translate(-322.47 -9.26)"/><path d="M895.5,126.06h2.39v12.16H895.5Zm5.89,2.3a2.75,2.75,0,0,0-1.11-.2,2.4,2.4,0,0,0-1.76.62,2.35,2.35,0,0,0-.63,1.74l-.25-2.34a4.42,4.42,0,0,1,1.46-1.69,3.45,3.45,0,0,1,2-.61,4.45,4.45,0,0,1,1.5.24,3.45,3.45,0,0,1,1.18.71l-1.56,2.11A2,2,0,0,0,901.39,128.36Z" transform="translate(-322.47 -9.26)"/><path d="M912.19,126.06h2.39v17.11h-2.39Zm3.47,11.79a3.14,3.14,0,0,1-1.25-1.54l.17-2.54a2.91,2.91,0,0,0,.28,1.34,2,2,0,0,0,.81.84,2.63,2.63,0,0,0,1.3.29,2.33,2.33,0,0,0,1.83-.72,2.9,2.9,0,0,0,.65-2v-2.64a3,3,0,0,0-.65-2.07A2.31,2.31,0,0,0,917,128a2.74,2.74,0,0,0-1.3.28,1.91,1.91,0,0,0-.81.83,2.77,2.77,0,0,0-.28,1.3l-.25-2.34a4.32,4.32,0,0,1,1.44-1.65,3.64,3.64,0,0,1,2-.58,4.11,4.11,0,0,1,2.21.58,3.64,3.64,0,0,1,1.4,1.7,6.72,6.72,0,0,1,.48,2.68v2.65a6.46,6.46,0,0,1-.49,2.65,3.72,3.72,0,0,1-1.44,1.68,4.23,4.23,0,0,1-2.27.58A3.51,3.51,0,0,1,915.66,137.85Z" transform="translate(-322.47 -9.26)"/><path d="M927.2,137.78a4.18,4.18,0,0,1-1.72-1.81,6.47,6.47,0,0,1-.59-2.87v-2a6.32,6.32,0,0,1,.59-2.83,4.13,4.13,0,0,1,1.72-1.79,6.21,6.21,0,0,1,5.41,0,4.08,4.08,0,0,1,1.72,1.79,6.32,6.32,0,0,1,.59,2.83v2a6.34,6.34,0,0,1-.59,2.84,4.15,4.15,0,0,1-1.72,1.8,6.21,6.21,0,0,1-5.41,0Zm4.65-2.44a3.27,3.27,0,0,0,.68-2.2v-2a3.24,3.24,0,0,0-.68-2.19,2.49,2.49,0,0,0-1.94-.77,2.46,2.46,0,0,0-1.94.77,3.2,3.2,0,0,0-.69,2.19v2a3.22,3.22,0,0,0,.69,2.2,2.44,2.44,0,0,0,1.94.79A2.47,2.47,0,0,0,931.85,135.34Z" transform="translate(-322.47 -9.26)"/><path d="M940.28,137.78a4.18,4.18,0,0,1-1.72-1.81,6.47,6.47,0,0,1-.59-2.87v-2a6.32,6.32,0,0,1,.59-2.83,4.13,4.13,0,0,1,1.72-1.79,6.21,6.21,0,0,1,5.41,0,4.13,4.13,0,0,1,1.72,1.79,6.32,6.32,0,0,1,.59,2.83v2a6.34,6.34,0,0,1-.59,2.84,4.21,4.21,0,0,1-1.72,1.8,6.21,6.21,0,0,1-5.41,0Zm4.64-2.44a3.22,3.22,0,0,0,.69-2.2v-2a3.2,3.2,0,0,0-.69-2.19,2.46,2.46,0,0,0-1.94-.77,2.49,2.49,0,0,0-1.94.77,3.24,3.24,0,0,0-.68,2.19v2a3.27,3.27,0,0,0,.68,2.2,2.47,2.47,0,0,0,1.94.79A2.44,2.44,0,0,0,944.92,135.34Z" transform="translate(-322.47 -9.26)"/><path d="M953.79,135.08a1.07,1.07,0,0,0,.19.69.66.66,0,0,0,.55.24h1.12v2.27h-1.4a2.68,2.68,0,0,1-2.11-.84,3.51,3.51,0,0,1-.74-2.38V121.18h2.39Z" transform="translate(-322.47 -9.26)"/><path d="M963.86,126.06h6.08v2h-6.08Zm1.28-1.65a3.42,3.42,0,0,1,.75-2.42,3,3,0,0,1,2.29-.81h1.76v2.28h-1.71a.58.58,0,0,0-.52.26,1.12,1.12,0,0,0-.17.66v13.84h-2.4Z" transform="translate(-322.47 -9.26)"/><path d="M974,137.78a4.1,4.1,0,0,1-1.71-1.81,6.34,6.34,0,0,1-.59-2.87v-2a6.19,6.19,0,0,1,.59-2.83A4.06,4.06,0,0,1,974,126.5a6.23,6.23,0,0,1,5.42,0,4.06,4.06,0,0,1,1.71,1.79,6.19,6.19,0,0,1,.6,2.83v2a6.2,6.2,0,0,1-.6,2.84,4.13,4.13,0,0,1-1.71,1.8,6.23,6.23,0,0,1-5.42,0Zm4.65-2.44a3.22,3.22,0,0,0,.69-2.2v-2a3.2,3.2,0,0,0-.69-2.19,2.83,2.83,0,0,0-3.88,0,3.19,3.19,0,0,0-.68,2.19v2a3.22,3.22,0,0,0,.68,2.2,2.78,2.78,0,0,0,3.88,0Z" transform="translate(-322.47 -9.26)"/><path d="M985.12,126.06h2.4v12.16h-2.4Zm5.9,2.3a2.75,2.75,0,0,0-1.11-.2,2.43,2.43,0,0,0-1.77.62,2.35,2.35,0,0,0-.62,1.74l-.25-2.34a4.39,4.39,0,0,1,1.45-1.69,3.47,3.47,0,0,1,2-.61,4.47,4.47,0,0,1,1.51.24,3.45,3.45,0,0,1,1.18.71l-1.56,2.11A2,2,0,0,0,991,128.36Z" transform="translate(-322.47 -9.26)"/><path d="M1013.7,129.05v3a7.28,7.28,0,0,1-.74,3.35,5.39,5.39,0,0,1-2.09,2.24,6.1,6.1,0,0,1-3.14.79,6.6,6.6,0,0,1-3.17-.74,5.23,5.23,0,0,1-2.11-2.11,6.41,6.41,0,0,1-.75-3.15v-5a7.27,7.27,0,0,1,.73-3.34,5.38,5.38,0,0,1,2.1-2.23,6,6,0,0,1,3.13-.79,5.84,5.84,0,0,1,2.7.63,5.6,5.6,0,0,1,2.07,1.77,6.61,6.61,0,0,1,1.12,2.66H1011a3.6,3.6,0,0,0-.71-1.47,3.53,3.53,0,0,0-1.18-.94,3.37,3.37,0,0,0-1.41-.32,3.44,3.44,0,0,0-1.85.5,3.35,3.35,0,0,0-1.23,1.42,4.82,4.82,0,0,0-.44,2.11v5a4,4,0,0,0,.45,1.93,3.17,3.17,0,0,0,1.26,1.28,3.72,3.72,0,0,0,1.88.46,3.52,3.52,0,0,0,1.85-.48,3.1,3.1,0,0,0,1.23-1.37,4.94,4.94,0,0,0,.44-2.15v-.74h-3.46v-2.28Z" transform="translate(-322.47 -9.26)"/><path d="M1019.29,137.78a4.13,4.13,0,0,1-1.72-1.81,6.34,6.34,0,0,1-.59-2.87v-2a6.19,6.19,0,0,1,.59-2.83,4.08,4.08,0,0,1,1.72-1.79,6.21,6.21,0,0,1,5.41,0,4.13,4.13,0,0,1,1.72,1.79,6.32,6.32,0,0,1,.59,2.83v2a6.34,6.34,0,0,1-.59,2.84,4.21,4.21,0,0,1-1.72,1.8,6.21,6.21,0,0,1-5.41,0Zm4.64-2.44a3.22,3.22,0,0,0,.69-2.2v-2a3.2,3.2,0,0,0-.69-2.19,2.83,2.83,0,0,0-3.88,0,3.24,3.24,0,0,0-.68,2.19v2a3.27,3.27,0,0,0,.68,2.2,2.78,2.78,0,0,0,3.88,0Z" transform="translate(-322.47 -9.26)"/><path d="M1029.53,135.72H1032v2.5h-2.51Z" transform="translate(-322.47 -9.26)"/></svg>